<?xml version="1.0" standalone="no"?>
 <!DOCTYPE svg PUBLIC "-//W3C//DTD SVG 1.1//EN" 
 "http://www.w3.org/Graphics/SVG/1.1/DTD/svg11.dtd"> 
<svg xmlns="http://www.w3.org/2000/svg" version="1.1" 
    width="41.9989cm" height="29.7002cm" viewBox="0 0 165350 116930 ">
<title>SVG Picture created as singing_drive-F_Cu.svg date 2016/12/27 11:26:33 </title>
  <desc>Picture generated by PCBNEW </desc>
<g style="fill:#000000; fill-opacity:1;stroke:#000000; stroke-opacity:1;
stroke-linecap:round; stroke-linejoin:round; "
 transform="translate(0 0) scale(1 1)">
</g>
<g style="fill:#000000; fill-opacity:0.0; 
stroke:#000000; stroke-width:19.685; stroke-opacity:1; 
stroke-linecap:round; stroke-linejoin:round;">
</g>
<g style="fill:#000000; fill-opacity:1.0; 
stroke:#000000; stroke-width:19.685; stroke-opacity:1; 
stroke-linecap:round; stroke-linejoin:round;">
<polyline style="fill-rule:evenodd;"
points="87549,47863
87726,47863
87726,48749
87549,48749
87549,47863
" /> 
<polyline style="fill-rule:evenodd;"
points="87234,47863
87411,47863
87411,48749
87234,48749
87234,47863
" /> 
<polyline style="fill-rule:evenodd;"
points="86919,47863
87096,47863
87096,48749
86919,48749
86919,47863
" /> 
<polyline style="fill-rule:evenodd;"
points="86604,47863
86781,47863
86781,48749
86604,48749
86604,47863
" /> 
<polyline style="fill-rule:evenodd;"
points="86289,47863
86466,47863
86466,48749
86289,48749
86289,47863
" /> 
<polyline style="fill-rule:evenodd;"
points="88376,47785
89143,47785
89143,48749
88376,48749
88376,47785
" /> 
<polyline style="fill-rule:evenodd;"
points="88376,45620
89143,45620
89143,46584
88376,46584
88376,45620
" /> 
<polyline style="fill-rule:evenodd;"
points="84872,47785
85639,47785
85639,48749
84872,48749
84872,47785
" /> 
<polyline style="fill-rule:evenodd;"
points="84872,45620
85639,45620
85639,46584
84872,46584
84872,45620
" /> 
<circle cx="87873.9" cy="47283.8" r="167.157" /> 
<circle cx="86141.9" cy="47283.8" r="167.157" /> 
<polyline style="fill-rule:evenodd;"
points="77443,48651
77068,48651
77068,48395
77443,48395
77443,48651
" /> 
<polyline style="fill-rule:evenodd;"
points="78443,48276
78068,48276
78068,48020
78443,48020
78443,48276
" /> 
<polyline style="fill-rule:evenodd;"
points="78443,49026
78068,49026
78068,48770
78443,48770
78443,49026
" /> 
<polyline style="fill-rule:evenodd;"
points="82364,48848
81990,48848
81990,48592
82364,48592
82364,48848
" /> 
<polyline style="fill-rule:evenodd;"
points="83364,48473
82990,48473
82990,48217
83364,48217
83364,48473
" /> 
<polyline style="fill-rule:evenodd;"
points="83364,49223
82990,49223
82990,48967
83364,48967
83364,49223
" /> 
<polyline style="fill-rule:evenodd;"
points="81380,50029
81005,50029
81005,49773
81380,49773
81380,50029
" /> 
<polyline style="fill-rule:evenodd;"
points="82380,49654
82005,49654
82005,49398
82380,49398
82380,49654
" /> 
<polyline style="fill-rule:evenodd;"
points="82380,50404
82005,50404
82005,50148
82380,50148
82380,50404
" /> 
<polyline style="fill-rule:evenodd;"
points="82301,47312
82675,47312
82675,47569
82301,47569
82301,47312
" /> 
<polyline style="fill-rule:evenodd;"
points="81301,47687
81675,47687
81675,47944
81301,47944
81301,47687
" /> 
<polyline style="fill-rule:evenodd;"
points="81301,46937
81675,46937
81675,47194
81301,47194
81301,46937
" /> 
<polyline style="fill-rule:evenodd;"
points="81021,48592
81395,48592
81395,48848
81021,48848
81021,48592
" /> 
<polyline style="fill-rule:evenodd;"
points="80021,48967
80395,48967
80395,49223
80021,49223
80021,48967
" /> 
<polyline style="fill-rule:evenodd;"
points="80021,48217
80395,48217
80395,48473
80021,48473
80021,48217
" /> 
<polyline style="fill-rule:evenodd;"
points="76360,47667
75986,47667
75986,47411
76360,47411
76360,47667
" /> 
<polyline style="fill-rule:evenodd;"
points="77360,47292
76986,47292
76986,47036
77360,47036
77360,47292
" /> 
<polyline style="fill-rule:evenodd;"
points="77360,48042
76986,48042
76986,47786
77360,47786
77360,48042
" /> 
<polyline style="fill-rule:evenodd;"
points="76887,49576
77261,49576
77261,49832
76887,49832
76887,49576
" /> 
<polyline style="fill-rule:evenodd;"
points="75887,49951
76261,49951
76261,50207
75887,50207
75887,49951
" /> 
<polyline style="fill-rule:evenodd;"
points="75887,49201
76261,49201
76261,49457
75887,49457
75887,49201
" /> 
<polyline style="fill-rule:evenodd;"
points="75903,48395
76277,48395
76277,48651
75903,48651
75903,48395
" /> 
<polyline style="fill-rule:evenodd;"
points="74903,48770
75277,48770
75277,49026
74903,49026
74903,48770
" /> 
<polyline style="fill-rule:evenodd;"
points="74903,48020
75277,48020
75277,48276
74903,48276
74903,48020
" /> 
<polyline style="fill-rule:evenodd;"
points="75030,46507
75560,46507
75560,46837
75030,46837
75030,46507
" /> 
<polyline style="fill-rule:evenodd;"
points="75030,47257
75560,47257
75560,47587
75030,47587
75030,47257
" /> 
<polyline style="fill-rule:evenodd;"
points="84025,50638
83494,50638
83494,50308
84025,50308
84025,50638
" /> 
<polyline style="fill-rule:evenodd;"
points="84025,49888
83494,49888
83494,49558
84025,49558
84025,49888
" /> 
<polyline style="fill-rule:evenodd;"
points="79184,50068
79184,49537
79514,49537
79514,50068
79184,50068
" /> 
<polyline style="fill-rule:evenodd;"
points="79934,50068
79934,49537
80264,49537
80264,50068
79934,50068
" /> 
<polyline style="fill-rule:evenodd;"
points="83691,48180
84221,48180
84221,48510
83691,48510
83691,48180
" /> 
<polyline style="fill-rule:evenodd;"
points="83691,48930
84221,48930
84221,49260
83691,49260
83691,48930
" /> 
<polyline style="fill-rule:evenodd;"
points="83494,46802
84025,46802
84025,47132
83494,47132
83494,46802
" /> 
<polyline style="fill-rule:evenodd;"
points="83494,47552
84025,47552
84025,47882
83494,47882
83494,47552
" /> 
<polyline style="fill-rule:evenodd;"
points="78770,48180
79300,48180
79300,48510
78770,48510
78770,48180
" /> 
<polyline style="fill-rule:evenodd;"
points="78770,48930
79300,48930
79300,49260
78770,49260
78770,48930
" /> 
<polyline style="fill-rule:evenodd;"
points="78788,49537
78788,50068
78457,50068
78457,49537
78788,49537
" /> 
<polyline style="fill-rule:evenodd;"
points="78038,49537
78038,50068
77707,50068
77707,49537
78038,49537
" /> 
<polyline style="fill-rule:evenodd;"
points="78316,47587
77786,47587
77786,47257
78316,47257
78316,47587
" /> 
<polyline style="fill-rule:evenodd;"
points="78316,46837
77786,46837
77786,46507
78316,46507
78316,46837
" /> 
<polyline style="fill-rule:evenodd;"
points="78648,46426
78648,45896
79178,45896
79178,46426
78648,46426
" /> 
<circle cx="79913.4" cy="46161.4" r="265.157" /> 
<circle cx="80913.4" cy="46161.4" r="265.157" /> 
<circle cx="81913.4" cy="46161.4" r="265.157" /> 
<polyline style="fill-rule:evenodd;"
points="78324,50522
78324,51052
77793,51052
77793,50522
78324,50522
" /> 
<circle cx="77059.1" cy="50787.4" r="265.157" /> 
<polyline style="fill-rule:evenodd;"
points="78959,50954
78959,50423
79489,50423
79489,50954
78959,50954
" /> 
<circle cx="80224.4" cy="50689" r="265.157" /> 
<polyline style="fill-rule:evenodd;"
points="80127,47824
80127,47253
80698,47253
80698,47824
80127,47824
" /> 
<polyline style="fill-rule:evenodd;"
points="85541,50875
85541,50305
86112,50305
86112,50875
85541,50875
" /> 
<polyline style="fill-rule:evenodd;"
points="84655,50875
84655,50305
85226,50305
85226,50875
84655,50875
" /> 
<polyline style="fill-rule:evenodd;"
points="78750,47824
78750,47253
79320,47253
79320,47824
78750,47824
" /> 
</g>
<g style="fill:#000000; fill-opacity:1.0; 
stroke:#000000; stroke-width:100; stroke-opacity:1; 
stroke-linecap:round; stroke-linejoin:round;">
<path d="M78051 46672
L78051 46259
" />
<path d="M78149 46161
L78913 46161
" />
<path d="M78051 46259
L78149 46161
" />
<path d="M75295 46672
L78051 46672
" />
<path d="M82192 50276
L82695 50276
" />
<path d="M83249 49723
L83759 49723
" />
<path d="M82695 50276
L83249 49723
" />
<path d="M84940 50590
L84940 49901
" />
<path d="M87637 49173
L87637 48306
" />
<path d="M87204 49606
L87637 49173
" />
<path d="M85236 49606
L87204 49606
" />
<path d="M84940 49901
L85236 49606
" />
<path d="M78255 48148
L78255 48122
" />
<path d="M78838 47539
L79035 47539
" />
<path d="M78255 48122
L78838 47539
" />
<path d="M80413 47539
L80413 45866
" />
<path d="M79429 47145
L79035 47539
" />
<path d="M79429 45866
L79429 47145
" />
<path d="M79625 45669
L79429 45866
" />
<path d="M80216 45669
L79625 45669
" />
<path d="M80413 45866
L80216 45669
" />
<path d="M80413 47539
L80708 47834
" />
<path d="M80708 47834
L81469 47834
" />
<path d="M81469 47834
L81488 47815
" />
<path d="M80208 49095
L80333 49095
" />
<path d="M80708 48720
L80708 47834
" />
<path d="M80333 49095
L80708 48720
" />
<path d="M77173 47164
L77441 47164
" />
<path d="M77441 47164
L77559 47047
" />
<path d="M77559 47047
L78543 47047
" />
<path d="M78543 47047
L79035 47539
" />
<path d="M78051 47422
L77971 47422
" />
<path d="M77479 47914
L77173 47914
" />
<path d="M77971 47422
L77479 47914
" />
<path d="M75090 48148
L75090 47940
" />
<path d="M75295 47736
L75295 47422
" />
<path d="M75090 47940
L75295 47736
" />
<path d="M77059 50787
L77059 50681
" />
<path d="M75590 49023
L76090 48523
" />
<path d="M75590 49606
L75590 49023
" />
<path d="M75688 49704
L75590 49606
" />
<path d="M76476 49704
L75688 49704
" />
<path d="M76574 49803
L76476 49704
" />
<path d="M76574 50196
L76574 49803
" />
<path d="M77059 50681
L76574 50196
" />
<path d="M76173 47539
L76173 47744
" />
<path d="M76090 47826
L76090 48523
" />
<path d="M76173 47744
L76090 47826
" />
<path d="M81913 46161
L83956 46161
" />
<path d="M84172 47717
L83759 47717
" />
<path d="M84448 47440
L84172 47717
" />
<path d="M84448 46653
L84448 47440
" />
<path d="M83956 46161
L84448 46653
" />
<path d="M83759 47717
L83759 47834
" />
<path d="M83956 48031
L83956 48345
" />
<path d="M83759 47834
L83956 48031
" />
<path d="M76074 49329
L76359 49329
" />
<path d="M77873 49428
L77873 49803
" />
<path d="M77657 49212
L77873 49428
" />
<path d="M76476 49212
L77657 49212
" />
<path d="M76359 49329
L76476 49212
" />
<path d="M78255 48898
L78266 48898
" />
<path d="M78819 48345
L79035 48345
" />
<path d="M78266 48898
L78819 48345
" />
<path d="M77074 49704
L77074 49803
" />
<path d="M77074 49803
L78059 50787
" />
<path d="M78059 50787
L78059 50484
" />
<path d="M77263 48523
L77255 48523
" />
<path d="M78248 49507
L77263 48523
" />
<path d="M78248 50295
L78248 49507
" />
<path d="M78059 50484
L78248 50295
" />
<path d="M80913 46161
L80913 47055
" />
<path d="M81594 48326
L81594 51181
" />
<path d="M81889 48031
L81594 48326
" />
<path d="M81889 47539
L81889 48031
" />
<path d="M81791 47440
L81889 47539
" />
<path d="M81299 47440
L81791 47440
" />
<path d="M80913 47055
L81299 47440
" />
<path d="M80099 49803
L80099 49920
" />
<path d="M83759 50984
L83759 50473
" />
<path d="M83562 51181
L83759 50984
" />
<path d="M79822 51181
L81594 51181
" />
<path d="M81594 51181
L81988 51181
" />
<path d="M81988 51181
L83562 51181
" />
<path d="M79724 51082
L79822 51181
" />
<path d="M79724 50295
L79724 51082
" />
<path d="M80099 49920
L79724 50295
" />
<path d="M79035 49095
L79250 49095
" />
<path d="M79913 46661
L79913 46161
" />
<path d="M79724 46850
L79913 46661
" />
<path d="M79724 48425
L79724 46850
" />
<path d="M79429 48720
L79724 48425
" />
<path d="M79429 48917
L79429 48720
" />
<path d="M79250 49095
L79429 48917
" />
<path d="M79035 49095
L79035 49114
" />
<path d="M78623 49526
L78623 49803
" />
<path d="M79035 49114
L78623 49526
" />
<path d="M83956 49095
L83177 49095
" />
<path d="M81488 47065
L81674 47065
" />
<path d="M81772 46967
L83759 46967
" />
<path d="M81674 47065
L81772 46967
" />
<path d="M79224 50688
L79224 51173
" />
<path d="M84350 48720
L82177 48720
" />
<path d="M84448 48818
L84350 48720
" />
<path d="M84448 49803
L84448 48818
" />
<path d="M84350 49901
L84448 49803
" />
<path d="M84350 51181
L84350 49901
" />
<path d="M84055 51476
L84350 51181
" />
<path d="M79527 51476
L84055 51476
" />
<path d="M79224 51173
L79527 51476
" />
<path d="M82488 47440
L82488 48409
" />
<path d="M82488 48409
L82177 48720
" />
<path d="M81192 49901
L81192 50303
" />
<path d="M80807 50688
L80224 50688
" />
<path d="M81192 50303
L80807 50688
" />
<path d="M81208 48720
L81208 49885
" />
<path d="M81208 49885
L81192 49901
" />
<path d="M79349 49803
L79349 49587
" />
<path d="M80099 48345
L80208 48345
" />
<path d="M79724 48720
L80099 48345
" />
<path d="M79724 49212
L79724 48720
" />
<path d="M79349 49587
L79724 49212
" />
</g>
<g style="fill:#000000; fill-opacity:1.0; 
stroke:#000000; stroke-width:19.685; stroke-opacity:1; 
stroke-linecap:round; stroke-linejoin:round;">
<polyline style="fill-rule:evenodd;"
points="90236,51751
89291,51751
89291,48732
89291,47748
89270,47697
89231,47659
89180,47638
89126,47638
88339,47638
88288,47658
88249,47697
88228,47748
88228,47803
88228,48787
88249,48837
88288,48876
88338,48897
88393,48897
89180,48897
89231,48876
89270,48837
89291,48787
89291,48732
89291,51751
88188,51751
88188,47221
88140,47105
88052,47017
87936,46969
87811,46968
87695,47016
87607,47105
87559,47220
87559,47346
87606,47461
87695,47550
87810,47598
87936,47598
88051,47550
88140,47462
88188,47346
88188,47221
88188,51751
86341,51751
86341,50842
86341,50338
86341,50251
86308,50170
86246,50108
86165,50075
85962,50075
85907,50130
85907,50510
86286,50510
86341,50455
86341,50338
86341,50842
86341,50725
86286,50670
85907,50670
85907,51050
85962,51105
86165,51105
86246,51072
86308,51010
86341,50929
86341,50842
86341,51751
75994,51751
75994,50382
75994,50148
75713,50148
75658,50203
75658,50261
75691,50342
75753,50403
75833,50437
75921,50437
75939,50437
75994,50382
75994,51751
75010,51751
75010,49201
75010,48967
75010,48829
75010,48595
74955,48540
74937,48540
74849,48540
74768,48574
74707,48636
74673,48717
74673,48774
74728,48829
75010,48829
75010,48967
74728,48967
74673,49022
74673,49080
74707,49160
74768,49222
74849,49256
74937,49256
74955,49256
75010,49201
75010,51751
73740,51751
73740,45590
79439,45590
79296,45733
79269,45772
79266,45769
79215,45748
79161,45748
78611,45748
78560,45769
78521,45808
78500,45858
78500,45913
78500,45973
78149,45973
78077,45987
78016,46028
77918,46127
77877,46187
77863,46259
77863,46359
77748,46359
77698,46380
77659,46419
77638,46469
77638,46484
75708,46484
75708,46469
75687,46419
75648,46380
75597,46359
75542,46359
74992,46359
74942,46380
74903,46419
74882,46469
74882,46524
74882,46874
74903,46925
74942,46963
74992,46985
75047,46985
75597,46985
75648,46964
75687,46925
75708,46874
75708,46860
77556,46860
77487,46873
77439,46905
77397,46888
77342,46888
76948,46888
76898,46909
76859,46948
76838,46998
76838,47053
76838,47329
76859,47380
76898,47419
76948,47440
77003,47440
77397,47440
77448,47419
77486,47380
77503,47339
77513,47337
77574,47297
77636,47235
77638,47235
77638,47274
77638,47489
77458,47669
77448,47659
77397,47638
77342,47638
76948,47638
76898,47659
76859,47698
76838,47748
76838,47803
76838,48079
76859,48130
76898,48169
76948,48190
77003,48190
77397,48190
77448,48169
77486,48130
77500,48097
77551,48087
77612,48047
77924,47735
78353,47735
78394,47718
78239,47872
78031,47872
77980,47893
77942,47932
77921,47983
77921,48037
77921,48313
77942,48364
77980,48403
78031,48424
78086,48424
78475,48424
78276,48622
78031,48622
77980,48643
77942,48682
77921,48733
77921,48787
77921,48915
77590,48584
77590,48358
77569,48307
77531,48268
77480,48247
77425,48247
77031,48247
76980,48268
76942,48307
76921,48358
76921,48412
76921,48688
76942,48739
76980,48778
77031,48799
77086,48799
77274,48799
77499,49024
76476,49024
76404,49039
76350,49075
76350,49075
76349,49074
76299,49053
76244,49053
75850,49053
75808,49071
76080,48799
76314,48799
76365,48778
76404,48739
76425,48689
76425,48634
76425,48358
76404,48307
76365,48268
76315,48247
76278,48247
76278,47904
76306,47876
76306,47876
76306,47876
76346,47815
76346,47815
76346,47815
76397,47815
76448,47794
76486,47755
76507,47704
76508,47650
76508,47374
76487,47323
76448,47284
76397,47263
76342,47263
75948,47263
75898,47284
75859,47323
75838,47373
75838,47428
75838,47704
75859,47755
75898,47794
75908,47798
75902,47826
75902,48247
75866,48247
75815,48268
75776,48307
75755,48358
75755,48412
75755,48592
75708,48640
75708,47569
75708,47219
75687,47169
75648,47130
75597,47109
75542,47109
74992,47109
74942,47130
74903,47169
74882,47219
74882,47274
74882,47624
74903,47675
74942,47713
74992,47735
75030,47735
74957,47808
74917,47869
74916,47872
74866,47872
74815,47893
74776,47932
74755,47983
74755,48037
74755,48313
74776,48364
74815,48403
74866,48424
74920,48424
75314,48424
75365,48403
75404,48364
75425,48314
75425,48259
75425,47983
75404,47932
75384,47912
75428,47869
75468,47808
75483,47736
75483,47735
75597,47735
75648,47714
75687,47675
75708,47624
75708,47569
75708,48640
75507,48841
75507,48841
75507,48818
75463,48818
75507,48774
75507,48717
75473,48636
75412,48574
75331,48540
75244,48540
75225,48540
75170,48595
75170,48829
75178,48829
75178,48967
75170,48967
75170,49201
75225,49256
75244,49256
75331,49256
75402,49226
75402,49606
75417,49678
75457,49739
75556,49837
75617,49878
75617,49878
75662,49887
75658,49898
75658,49955
75713,50010
75994,50010
75994,49991
76155,49991
76155,50010
76162,50010
76162,50148
76155,50148
76155,50382
76210,50437
76228,50437
76315,50437
76396,50403
76456,50343
76696,50584
76646,50704
76646,50869
76708,51020
76824,51137
76976,51200
77140,51200
77292,51137
77408,51021
77471,50869
77471,50705
77409,50553
77293,50437
77141,50374
77018,50374
76762,50119
76762,49922
76799,49959
76850,49980
76905,49980
76986,49980
77646,50640
77646,51089
77667,51140
77705,51179
77756,51200
77811,51200
78361,51200
78412,51179
78450,51140
78471,51089
78471,51035
78471,50485
78450,50434
78412,50395
78404,50392
78421,50367
78421,50367
78435,50295
78435,50215
78475,50215
78825,50215
78875,50195
78914,50156
78935,50105
78935,50050
78935,49500
78929,49485
79006,49408
79103,49408
79096,49411
79057,49449
79036,49500
79036,49555
79036,50105
79057,50156
79096,50194
79146,50215
79201,50215
79551,50215
79557,50213
79550,50223
79539,50281
79526,50276
79472,50276
78922,50276
78871,50297
78832,50335
78811,50386
78811,50441
78811,50991
78832,51041
78871,51080
78921,51101
78976,51101
79036,51101
79036,51173
79050,51245
79091,51306
79394,51609
79455,51649
79455,51649
79527,51664
84055,51664
84126,51649
84187,51609
84483,51313
84523,51252
84538,51181
84538,50973
84567,51002
84618,51023
84672,51023
85263,51023
85314,51002
85333,50982
85345,51010
85407,51072
85487,51105
85691,51105
85746,51050
85746,50670
85738,50670
85738,50510
85746,50510
85746,50130
85691,50075
85487,50075
85407,50108
85345,50170
85333,50198
85314,50178
85263,50157
85208,50157
85128,50157
85128,49979
85314,49794
87204,49794
87276,49779
87337,49739
87770,49305
87770,49305
87770,49305
87811,49245
87811,49245
87822,49187
87825,49173
87825,49173
87825,49173
87825,48865
87853,48837
87874,48787
87874,48732
87874,47826
87853,47775
87814,47737
87763,47716
87709,47716
87512,47716
87480,47729
87448,47716
87394,47716
87197,47716
87165,47729
87133,47716
87079,47716
86964,47716
86915,47667
86835,47634
86797,47634
86742,47689
86742,48226
86771,48226
86771,48387
86742,48387
86742,48924
86797,48979
86835,48979
86915,48945
86964,48897
87133,48897
87165,48884
87196,48897
87251,48897
87448,48897
87450,48897
87450,49095
87126,49418
86643,49418
86643,48924
86643,48387
86614,48387
86614,48226
86643,48226
86643,47689
86588,47634
86550,47634
86469,47667
86456,47680
86456,47221
86408,47105
86320,47017
86204,46969
86079,46968
85963,47016
85875,47105
85827,47220
85827,47346
85874,47461
85963,47550
86078,47598
86204,47598
86319,47550
86408,47462
86456,47346
86456,47221
86456,47680
86421,47716
86252,47716
86201,47736
86162,47775
86141,47826
86141,47881
86141,48787
86162,48837
86201,48876
86251,48897
86306,48897
86421,48897
86469,48945
86550,48979
86588,48979
86643,48924
86643,49418
85787,49418
85787,48732
85787,47748
85766,47697
85727,47659
85676,47638
85622,47638
84835,47638
84784,47658
84745,47697
84724,47748
84724,47803
84724,48787
84745,48837
84784,48876
84834,48897
84889,48897
85676,48897
85727,48876
85766,48837
85787,48787
85787,48732
85787,49418
85236,49418
85164,49432
85103,49473
84808,49768
84767,49829
84753,49901
84753,50157
84618,50157
84567,50178
84538,50207
84538,49979
84581,49935
84622,49875
84622,49875
84636,49803
84636,48818
84622,48747
84622,48747
84581,48686
84483,48587
84422,48546
84369,48536
84369,48493
84369,48143
84348,48092
84309,48053
84259,48032
84204,48032
84144,48032
84144,48031
84144,48031
84144,48031
84141,48017
84135,47986
84135,47986
84151,47970
84172,47920
84172,47905
84244,47891
84305,47850
84581,47573
84622,47512
84636,47440
84636,46653
84636,46653
84622,46581
84622,46581
84581,46520
84581,46520
84089,46028
84028,45987
83956,45973
82282,45973
82263,45927
82147,45811
81995,45748
81831,45748
81679,45811
81563,45927
81500,46078
81500,46243
81563,46394
81679,46511
81830,46574
81995,46574
82146,46511
82263,46395
82282,46349
83878,46349
84261,46731
84261,47363
84154,47470
84151,47464
84112,47425
84062,47404
84007,47404
83457,47404
83406,47425
83368,47464
83347,47514
83347,47569
83347,47919
83367,47970
83385,47987
83330,47987
83312,47987
83257,48042
83257,48276
83265,48276
83265,48414
83257,48414
83257,48433
83096,48433
83096,48414
83096,48276
83096,48042
83041,47987
83023,47987
82936,47987
82855,48021
82793,48083
82760,48163
82760,48221
82815,48276
83096,48276
83096,48414
82815,48414
82760,48469
82760,48526
82762,48532
82627,48532
82661,48481
82661,48481
82673,48423
82675,48409
82675,48409
82675,48409
82675,47716
82712,47716
82763,47695
82801,47657
82822,47606
82823,47551
82823,47275
82802,47224
82763,47186
82712,47165
82657,47165
82263,47165
82213,47186
82174,47224
82153,47275
82153,47330
82153,47606
82174,47656
82213,47695
82263,47716
82300,47716
82300,48331
82187,48444
81952,48444
81902,48465
81863,48504
81842,48554
81842,48609
81842,48885
81863,48936
81902,48975
81952,48996
82007,48996
82401,48996
82452,48975
82490,48936
82502,48908
82851,48908
82842,48929
82842,48984
82842,49260
82863,49311
82902,49350
82952,49371
83007,49371
83401,49371
83452,49350
83490,49311
83502,49283
83543,49283
83543,49297
83564,49348
83603,49387
83654,49408
83708,49408
84258,49408
84261,49407
84261,49725
84217,49768
84176,49829
84172,49850
84172,49521
84151,49470
84112,49431
84062,49410
84007,49410
83457,49410
83406,49431
83368,49470
83347,49520
83347,49535
83249,49535
83177,49549
83116,49590
82618,50088
82609,50088
82609,49708
82609,49345
82576,49264
82514,49202
82433,49168
82346,49168
82328,49168
82273,49223
82273,49457
82554,49457
82609,49402
82609,49345
82609,49708
82609,49650
82554,49595
82273,49595
82273,49829
82328,49884
82346,49884
82433,49884
82514,49850
82576,49788
82609,49708
82609,50088
82518,50088
82506,50060
82468,50021
82417,50000
82362,50000
81968,50000
81917,50021
81879,50060
81858,50111
81858,50165
81858,50441
81879,50492
81917,50531
81968,50552
82023,50552
82417,50552
82467,50531
82506,50492
82518,50464
82695,50464
82767,50450
82828,50409
83326,49911
83347,49911
83347,49925
83367,49976
83406,50015
83457,50036
83512,50036
84062,50036
84112,50015
84151,49976
84162,49950
84162,50246
84151,50220
84112,50181
84062,50160
84007,50160
83457,50160
83406,50181
83368,50220
83347,50270
83347,50325
83347,50675
83367,50726
83406,50765
83457,50786
83512,50786
83572,50786
83572,50906
83485,50993
81988,50993
81782,50993
81782,49722
81809,49788
81871,49850
81952,49884
82039,49884
82057,49884
82112,49829
82112,49595
82104,49595
82104,49457
82112,49457
82112,49223
82057,49168
82039,49168
81952,49168
81871,49202
81809,49264
81782,49330
81782,48404
82022,48164
82063,48103
82077,48031
82077,47539
82063,47467
82063,47467
82022,47406
81924,47308
81863,47267
81812,47257
81822,47231
81823,47182
81850,47155
83347,47155
83347,47169
83367,47220
83406,47259
83457,47280
83512,47280
84062,47280
84112,47259
84151,47220
84172,47170
84172,47115
84172,46765
84151,46714
84112,46675
84062,46654
84007,46654
83457,46654
83406,46675
83368,46714
83347,46764
83347,46779
81772,46779
81715,46791
81715,46791
81712,46790
81657,46790
81263,46790
81213,46811
81174,46849
81153,46900
81153,46955
81153,47029
81101,46977
81101,46530
81146,46511
81263,46395
81326,46243
81326,46079
81263,45927
81147,45811
80995,45748
80831,45748
80679,45811
80601,45889
80601,45866
80601,45866
80601,45866
80598,45851
80586,45794
80586,45794
80546,45733
80546,45733
80403,45590
84724,45590
84724,45638
84724,46622
84745,46672
84784,46711
84834,46732
84889,46732
85676,46732
85727,46711
85766,46672
85787,46622
85787,46567
85787,45590
88228,45590
88228,45638
88228,46622
88249,46672
88288,46711
88338,46732
88393,46732
89180,46732
89231,46711
89270,46672
89291,46622
89291,46567
89291,45590
90236,45590
90236,51751
" /> 
</g>
<g style="fill:#000000; fill-opacity:0.0; 
stroke:#000000; stroke-width:39.3701; stroke-opacity:1; 
stroke-linecap:round; stroke-linejoin:round;">
<polyline fill="none;"
points="90236,51751
89291,51751
89291,48732
89291,47748
89270,47697
89231,47659
89180,47638
89126,47638
88339,47638
88288,47658
88249,47697
88228,47748
88228,47803
88228,48787
88249,48837
88288,48876
88338,48897
88393,48897
89180,48897
89231,48876
89270,48837
89291,48787
89291,48732
89291,51751
88188,51751
88188,47221
88140,47105
88052,47017
87936,46969
87811,46968
87695,47016
87607,47105
87559,47220
87559,47346
87606,47461
87695,47550
87810,47598
87936,47598
88051,47550
88140,47462
88188,47346
88188,47221
88188,51751
86341,51751
86341,50842
86341,50338
86341,50251
86308,50170
86246,50108
86165,50075
85962,50075
85907,50130
85907,50510
86286,50510
86341,50455
86341,50338
86341,50842
86341,50725
86286,50670
85907,50670
85907,51050
85962,51105
86165,51105
86246,51072
86308,51010
86341,50929
86341,50842
86341,51751
75994,51751
75994,50382
75994,50148
75713,50148
75658,50203
75658,50261
75691,50342
75753,50403
75833,50437
75921,50437
75939,50437
75994,50382
75994,51751
75010,51751
75010,49201
75010,48967
75010,48829
75010,48595
74955,48540
74937,48540
74849,48540
74768,48574
74707,48636
74673,48717
74673,48774
74728,48829
75010,48829
75010,48967
74728,48967
74673,49022
74673,49080
74707,49160
74768,49222
74849,49256
74937,49256
74955,49256
75010,49201
75010,51751
73740,51751
73740,45590
79439,45590
79296,45733
79269,45772
79266,45769
79215,45748
79161,45748
78611,45748
78560,45769
78521,45808
78500,45858
78500,45913
78500,45973
78149,45973
78077,45987
78016,46028
77918,46127
77877,46187
77863,46259
77863,46359
77748,46359
77698,46380
77659,46419
77638,46469
77638,46484
75708,46484
75708,46469
75687,46419
75648,46380
75597,46359
75542,46359
74992,46359
74942,46380
74903,46419
74882,46469
74882,46524
74882,46874
74903,46925
74942,46963
74992,46985
75047,46985
75597,46985
75648,46964
75687,46925
75708,46874
75708,46860
77556,46860
77487,46873
77439,46905
77397,46888
77342,46888
76948,46888
76898,46909
76859,46948
76838,46998
76838,47053
76838,47329
76859,47380
76898,47419
76948,47440
77003,47440
77397,47440
77448,47419
77486,47380
77503,47339
77513,47337
77574,47297
77636,47235
77638,47235
77638,47274
77638,47489
77458,47669
77448,47659
77397,47638
77342,47638
76948,47638
76898,47659
76859,47698
76838,47748
76838,47803
76838,48079
76859,48130
76898,48169
76948,48190
77003,48190
77397,48190
77448,48169
77486,48130
77500,48097
77551,48087
77612,48047
77924,47735
78353,47735
78394,47718
78239,47872
78031,47872
77980,47893
77942,47932
77921,47983
77921,48037
77921,48313
77942,48364
77980,48403
78031,48424
78086,48424
78475,48424
78276,48622
78031,48622
77980,48643
77942,48682
77921,48733
77921,48787
77921,48915
77590,48584
77590,48358
77569,48307
77531,48268
77480,48247
77425,48247
77031,48247
76980,48268
76942,48307
76921,48358
76921,48412
76921,48688
76942,48739
76980,48778
77031,48799
77086,48799
77274,48799
77499,49024
76476,49024
76404,49039
76350,49075
76350,49075
76349,49074
76299,49053
76244,49053
75850,49053
75808,49071
76080,48799
76314,48799
76365,48778
76404,48739
76425,48689
76425,48634
76425,48358
76404,48307
76365,48268
76315,48247
76278,48247
76278,47904
76306,47876
76306,47876
76306,47876
76346,47815
76346,47815
76346,47815
76397,47815
76448,47794
76486,47755
76507,47704
76508,47650
76508,47374
76487,47323
76448,47284
76397,47263
76342,47263
75948,47263
75898,47284
75859,47323
75838,47373
75838,47428
75838,47704
75859,47755
75898,47794
75908,47798
75902,47826
75902,48247
75866,48247
75815,48268
75776,48307
75755,48358
75755,48412
75755,48592
75708,48640
75708,47569
75708,47219
75687,47169
75648,47130
75597,47109
75542,47109
74992,47109
74942,47130
74903,47169
74882,47219
74882,47274
74882,47624
74903,47675
74942,47713
74992,47735
75030,47735
74957,47808
74917,47869
74916,47872
74866,47872
74815,47893
74776,47932
74755,47983
74755,48037
74755,48313
74776,48364
74815,48403
74866,48424
74920,48424
75314,48424
75365,48403
75404,48364
75425,48314
75425,48259
75425,47983
75404,47932
75384,47912
75428,47869
75468,47808
75483,47736
75483,47735
75597,47735
75648,47714
75687,47675
75708,47624
75708,47569
75708,48640
75507,48841
75507,48841
75507,48818
75463,48818
75507,48774
75507,48717
75473,48636
75412,48574
75331,48540
75244,48540
75225,48540
75170,48595
75170,48829
75178,48829
75178,48967
75170,48967
75170,49201
75225,49256
75244,49256
75331,49256
75402,49226
75402,49606
75417,49678
75457,49739
75556,49837
75617,49878
75617,49878
75662,49887
75658,49898
75658,49955
75713,50010
75994,50010
75994,49991
76155,49991
76155,50010
76162,50010
76162,50148
76155,50148
76155,50382
76210,50437
76228,50437
76315,50437
76396,50403
76456,50343
76696,50584
76646,50704
76646,50869
76708,51020
76824,51137
76976,51200
77140,51200
77292,51137
77408,51021
77471,50869
77471,50705
77409,50553
77293,50437
77141,50374
77018,50374
76762,50119
76762,49922
76799,49959
76850,49980
76905,49980
76986,49980
77646,50640
77646,51089
77667,51140
77705,51179
77756,51200
77811,51200
78361,51200
78412,51179
78450,51140
78471,51089
78471,51035
78471,50485
78450,50434
78412,50395
78404,50392
78421,50367
78421,50367
78435,50295
78435,50215
78475,50215
78825,50215
78875,50195
78914,50156
78935,50105
78935,50050
78935,49500
78929,49485
79006,49408
79103,49408
79096,49411
79057,49449
79036,49500
79036,49555
79036,50105
79057,50156
79096,50194
79146,50215
79201,50215
79551,50215
79557,50213
79550,50223
79539,50281
79526,50276
79472,50276
78922,50276
78871,50297
78832,50335
78811,50386
78811,50441
78811,50991
78832,51041
78871,51080
78921,51101
78976,51101
79036,51101
79036,51173
79050,51245
79091,51306
79394,51609
79455,51649
79455,51649
79527,51664
84055,51664
84126,51649
84187,51609
84483,51313
84523,51252
84538,51181
84538,50973
84567,51002
84618,51023
84672,51023
85263,51023
85314,51002
85333,50982
85345,51010
85407,51072
85487,51105
85691,51105
85746,51050
85746,50670
85738,50670
85738,50510
85746,50510
85746,50130
85691,50075
85487,50075
85407,50108
85345,50170
85333,50198
85314,50178
85263,50157
85208,50157
85128,50157
85128,49979
85314,49794
87204,49794
87276,49779
87337,49739
87770,49305
87770,49305
87770,49305
87811,49245
87811,49245
87822,49187
87825,49173
87825,49173
87825,49173
87825,48865
87853,48837
87874,48787
87874,48732
87874,47826
87853,47775
87814,47737
87763,47716
87709,47716
87512,47716
87480,47729
87448,47716
87394,47716
87197,47716
87165,47729
87133,47716
87079,47716
86964,47716
86915,47667
86835,47634
86797,47634
86742,47689
86742,48226
86771,48226
86771,48387
86742,48387
86742,48924
86797,48979
86835,48979
86915,48945
86964,48897
87133,48897
87165,48884
87196,48897
87251,48897
87448,48897
87450,48897
87450,49095
87126,49418
86643,49418
86643,48924
86643,48387
86614,48387
86614,48226
86643,48226
86643,47689
86588,47634
86550,47634
86469,47667
86456,47680
86456,47221
86408,47105
86320,47017
86204,46969
86079,46968
85963,47016
85875,47105
85827,47220
85827,47346
85874,47461
85963,47550
86078,47598
86204,47598
86319,47550
86408,47462
86456,47346
86456,47221
86456,47680
86421,47716
86252,47716
86201,47736
86162,47775
86141,47826
86141,47881
86141,48787
86162,48837
86201,48876
86251,48897
86306,48897
86421,48897
86469,48945
86550,48979
86588,48979
86643,48924
86643,49418
85787,49418
85787,48732
85787,47748
85766,47697
85727,47659
85676,47638
85622,47638
84835,47638
84784,47658
84745,47697
84724,47748
84724,47803
84724,48787
84745,48837
84784,48876
84834,48897
84889,48897
85676,48897
85727,48876
85766,48837
85787,48787
85787,48732
85787,49418
85236,49418
85164,49432
85103,49473
84808,49768
84767,49829
84753,49901
84753,50157
84618,50157
84567,50178
84538,50207
84538,49979
84581,49935
84622,49875
84622,49875
84636,49803
84636,48818
84622,48747
84622,48747
84581,48686
84483,48587
84422,48546
84369,48536
84369,48493
84369,48143
84348,48092
84309,48053
84259,48032
84204,48032
84144,48032
84144,48031
84144,48031
84144,48031
84141,48017
84135,47986
84135,47986
84151,47970
84172,47920
84172,47905
84244,47891
84305,47850
84581,47573
84622,47512
84636,47440
84636,46653
84636,46653
84622,46581
84622,46581
84581,46520
84581,46520
84089,46028
84028,45987
83956,45973
82282,45973
82263,45927
82147,45811
81995,45748
81831,45748
81679,45811
81563,45927
81500,46078
81500,46243
81563,46394
81679,46511
81830,46574
81995,46574
82146,46511
82263,46395
82282,46349
83878,46349
84261,46731
84261,47363
84154,47470
84151,47464
84112,47425
84062,47404
84007,47404
83457,47404
83406,47425
83368,47464
83347,47514
83347,47569
83347,47919
83367,47970
83385,47987
83330,47987
83312,47987
83257,48042
83257,48276
83265,48276
83265,48414
83257,48414
83257,48433
83096,48433
83096,48414
83096,48276
83096,48042
83041,47987
83023,47987
82936,47987
82855,48021
82793,48083
82760,48163
82760,48221
82815,48276
83096,48276
83096,48414
82815,48414
82760,48469
82760,48526
82762,48532
82627,48532
82661,48481
82661,48481
82673,48423
82675,48409
82675,48409
82675,48409
82675,47716
82712,47716
82763,47695
82801,47657
82822,47606
82823,47551
82823,47275
82802,47224
82763,47186
82712,47165
82657,47165
82263,47165
82213,47186
82174,47224
82153,47275
82153,47330
82153,47606
82174,47656
82213,47695
82263,47716
82300,47716
82300,48331
82187,48444
81952,48444
81902,48465
81863,48504
81842,48554
81842,48609
81842,48885
81863,48936
81902,48975
81952,48996
82007,48996
82401,48996
82452,48975
82490,48936
82502,48908
82851,48908
82842,48929
82842,48984
82842,49260
82863,49311
82902,49350
82952,49371
83007,49371
83401,49371
83452,49350
83490,49311
83502,49283
83543,49283
83543,49297
83564,49348
83603,49387
83654,49408
83708,49408
84258,49408
84261,49407
84261,49725
84217,49768
84176,49829
84172,49850
84172,49521
84151,49470
84112,49431
84062,49410
84007,49410
83457,49410
83406,49431
83368,49470
83347,49520
83347,49535
83249,49535
83177,49549
83116,49590
82618,50088
82609,50088
82609,49708
82609,49345
82576,49264
82514,49202
82433,49168
82346,49168
82328,49168
82273,49223
82273,49457
82554,49457
82609,49402
82609,49345
82609,49708
82609,49650
82554,49595
82273,49595
82273,49829
82328,49884
82346,49884
82433,49884
82514,49850
82576,49788
82609,49708
82609,50088
82518,50088
82506,50060
82468,50021
82417,50000
82362,50000
81968,50000
81917,50021
81879,50060
81858,50111
81858,50165
81858,50441
81879,50492
81917,50531
81968,50552
82023,50552
82417,50552
82467,50531
82506,50492
82518,50464
82695,50464
82767,50450
82828,50409
83326,49911
83347,49911
83347,49925
83367,49976
83406,50015
83457,50036
83512,50036
84062,50036
84112,50015
84151,49976
84162,49950
84162,50246
84151,50220
84112,50181
84062,50160
84007,50160
83457,50160
83406,50181
83368,50220
83347,50270
83347,50325
83347,50675
83367,50726
83406,50765
83457,50786
83512,50786
83572,50786
83572,50906
83485,50993
81988,50993
81782,50993
81782,49722
81809,49788
81871,49850
81952,49884
82039,49884
82057,49884
82112,49829
82112,49595
82104,49595
82104,49457
82112,49457
82112,49223
82057,49168
82039,49168
81952,49168
81871,49202
81809,49264
81782,49330
81782,48404
82022,48164
82063,48103
82077,48031
82077,47539
82063,47467
82063,47467
82022,47406
81924,47308
81863,47267
81812,47257
81822,47231
81823,47182
81850,47155
83347,47155
83347,47169
83367,47220
83406,47259
83457,47280
83512,47280
84062,47280
84112,47259
84151,47220
84172,47170
84172,47115
84172,46765
84151,46714
84112,46675
84062,46654
84007,46654
83457,46654
83406,46675
83368,46714
83347,46764
83347,46779
81772,46779
81715,46791
81715,46791
81712,46790
81657,46790
81263,46790
81213,46811
81174,46849
81153,46900
81153,46955
81153,47029
81101,46977
81101,46530
81146,46511
81263,46395
81326,46243
81326,46079
81263,45927
81147,45811
80995,45748
80831,45748
80679,45811
80601,45889
80601,45866
80601,45866
80601,45866
80598,45851
80586,45794
80586,45794
80546,45733
80546,45733
80403,45590
84724,45590
84724,45638
84724,46622
84745,46672
84784,46711
84834,46732
84889,46732
85676,46732
85727,46711
85766,46672
85787,46622
85787,46567
85787,45590
88228,45590
88228,45638
88228,46622
88249,46672
88288,46711
88338,46732
88393,46732
89180,46732
89231,46711
89270,46672
89291,46622
89291,46567
89291,45590
90236,45590
90236,51751
" /> 
</g>
<g style="fill:#FFFFFF; fill-opacity:0.0; 
stroke:#FFFFFF; stroke-width:19.685; stroke-opacity:1; 
stroke-linecap:round; stroke-linejoin:round;">
</g>
<g style="fill:#FFFFFF; fill-opacity:1.0; 
stroke:#FFFFFF; stroke-width:19.685; stroke-opacity:1; 
stroke-linecap:round; stroke-linejoin:round;">
<circle cx="87873.9" cy="47283.8" r="167.157" /> 
<circle cx="86141.9" cy="47283.8" r="167.157" /> 
</g> 
</svg>
